<svg width="407" height="410" viewBox="0 0 407 410" fill="none" xmlns="http://www.w3.org/2000/svg">
<g clip-path="url(#clip0_1283_463)">
<path fill-rule="evenodd" clip-rule="evenodd" d="M-0.5 -0.5C135.167 -0.5 270.833 -0.5 406.5 -0.5C406.5 136.167 406.5 272.833 406.5 409.5C270.833 409.5 135.167 409.5 -0.5 409.5C-0.5 272.833 -0.5 136.167 -0.5 -0.5Z" fill="#F4E3CE"/>
<path fill-rule="evenodd" clip-rule="evenodd" d="M140.5 70.5C145.946 69.3394 150.113 71.0061 153 75.5C152.61 83.4804 152.61 91.4804 153 99.5C157.194 103.694 161.36 107.86 165.5 112C164.789 113.255 163.956 114.421 163 115.5C158.333 110.833 153.667 106.167 149 101.5C148.828 96.7982 148.328 92.1315 147.5 87.5C138.459 88.6239 134.625 84.6239 136 75.5C137.025 73.313 138.525 71.6464 140.5 70.5Z" fill="#F7F5EF"/>
<path fill-rule="evenodd" clip-rule="evenodd" d="M141.5 74.5C146.083 73.343 148.75 75.0096 149.5 79.5C147.349 85.1634 144.182 85.8301 140 81.5C139.167 78.829 139.667 76.4957 141.5 74.5Z" fill="#E9D9C6"/>
<path fill-rule="evenodd" clip-rule="evenodd" d="M237.5 70.5C246.658 69.4906 250.492 73.4906 249 82.5C246.605 87.6167 242.772 89.2834 237.5 87.5C236.903 92.9114 236.069 98.2447 235 103.5C230.675 107.456 226.341 111.456 222 115.5C221.5 114.333 220.667 113.5 219.5 113C223.382 108.817 227.549 104.984 232 101.5C232.369 92.8167 232.369 84.15 232 75.5C233.406 73.2563 235.239 71.5897 237.5 70.5Z" fill="#F5F0E5"/>
<path fill-rule="evenodd" clip-rule="evenodd" d="M189.5 56.5C194.727 55.237 197.56 57.237 198 62.5C201 65.5 204 68.5 207 71.5C207.833 84.8458 207.666 98.1792 206.5 111.5C205.833 111.167 205.167 110.833 204.5 110.5C203.667 98.1801 203.167 85.8468 203 73.5C200.317 70.9841 197.817 68.3174 195.5 65.5C193.166 66.482 190.832 66.6487 188.5 66C186.333 68.1667 184.167 70.3333 182 72.5C181.833 85.1798 181.333 97.8465 180.5 110.5C179.833 110.833 179.167 111.167 178.5 111.5C177.334 98.1792 177.167 84.8458 178 71.5C183.228 67.4553 187.061 62.4553 189.5 56.5Z" fill="#F9F7EF"/>
<path fill-rule="evenodd" clip-rule="evenodd" d="M261.5 82.5C265.24 82.2408 268.906 82.5741 272.5 83.5C273.631 85.0745 273.798 86.7412 273 88.5C269.63 91.535 266.63 94.8683 264 98.5C263.667 102.167 263.333 105.833 263 109.5C256.969 115.866 250.636 121.866 244 127.5C242.635 126.407 242.301 125.074 243 123.5C248.365 117.801 254.031 112.467 260 107.5C260.333 103.5 260.667 99.5 261 95.5C263.682 92.6503 266.516 89.9836 269.5 87.5C266.894 86.3483 264.227 86.1816 261.5 87C252.994 93.8636 246.827 102.364 243 112.5C240.5 115 238 117.5 235.5 120C234.092 120.315 232.759 119.982 231.5 119C234.667 115.833 237.833 112.667 241 109.5C245.077 98.2758 251.91 89.2758 261.5 82.5Z" fill="#F8F5EE"/>
<path fill-rule="evenodd" clip-rule="evenodd" d="M112.5 82.5C118.424 81.5882 123.758 82.7549 128.5 86C135.741 92.3078 140.574 100.141 143 109.5C145.667 112.167 148.333 114.833 151 117.5C151.49 118.793 151.657 120.127 151.5 121.5C147.019 119.541 143.185 116.541 140 112.5C137.482 102.625 132.316 94.4586 124.5 88C121.634 86.5432 118.634 86.2099 115.5 87C119.016 90.3486 122.349 93.8486 125.5 97.5C124.243 100.823 124.243 104.156 125.5 107.5C131.387 113.043 137.221 118.71 143 124.5C142.439 127.355 140.939 127.855 138.5 126C133 120.5 127.5 115 122 109.5C121.667 105.833 121.333 102.167 121 98.5C118.027 95.527 115.027 92.527 112 89.5C111.297 87.0709 111.463 84.7375 112.5 82.5Z" fill="#F8F6EF"/>
<path fill-rule="evenodd" clip-rule="evenodd" d="M217.5 63.5C219.5 63.5 221.5 63.5 223.5 63.5C223.773 65.451 223.107 66.951 221.5 68C221.917 71.1266 221.917 74.46 221.5 78C221.667 80.8333 221.833 83.6667 222 86.5C225.607 90.4075 224.94 93.4075 220 95.5C213.681 93.566 213.014 90.566 218 86.5C219.042 79.4988 218.542 72.6654 216.5 66C216.743 65.0979 217.077 64.2646 217.5 63.5Z" fill="#F9F7F0"/>
<path fill-rule="evenodd" clip-rule="evenodd" d="M162.5 63.5C164.199 63.3398 165.866 63.5065 167.5 64C168.022 64.5613 168.355 65.228 168.5 66C166.29 72.6889 165.957 79.5222 167.5 86.5C168.991 87.3481 169.658 88.6814 169.5 90.5C169.167 94.9894 166.833 96.4894 162.5 95C159.76 92.0211 159.927 89.1878 163 86.5C163.167 84.3333 163.333 82.1667 163.5 80C162.924 76.2564 162.924 72.5897 163.5 69C161.714 67.3172 161.381 65.4839 162.5 63.5Z" fill="#FAF7EF"/>
<path fill-rule="evenodd" clip-rule="evenodd" d="M95.5 102.5C100.339 103.172 103.505 105.838 105 110.5C113.944 118.442 122.61 126.775 131 135.5C131.388 137.076 130.888 138.409 129.5 139.5C121.14 131.472 112.807 123.472 104.5 115.5C99.6405 121.577 94.4739 121.911 89 116.5C86.4071 109.6 88.5738 104.933 95.5 102.5Z" fill="#F6F2E9"/>
<path fill-rule="evenodd" clip-rule="evenodd" d="M189.5 118.5C223.627 119.466 246.794 135.799 259 167.5C264.619 187.98 261.952 207.313 251 225.5C249.356 228.311 247.19 230.644 244.5 232.5C239.658 229.153 235.325 225.32 231.5 221C246.343 200.742 247.176 179.909 234 158.5C214.921 135.684 192.088 131.184 165.5 145C142.657 163.207 137.157 185.707 149 212.5C159.285 228.08 173.785 237.247 192.5 240C198.5 245 204.5 250 210.5 255C180.437 261.204 155.937 252.371 137 228.5C124.234 209.408 120.901 188.742 127 166.5C138.234 137.741 159.067 121.741 189.5 118.5Z" fill="#FCF9EE"/>
<path fill-rule="evenodd" clip-rule="evenodd" d="M285.5 103.5C296.409 102.578 299.909 107.245 296 117.5C290.513 121.755 285.679 121.088 281.5 115.5C273.048 122.45 265.048 129.95 257.5 138C255.926 138.699 254.593 138.365 253.5 137C264.818 126.188 275.485 115.021 285.5 103.5Z" fill="#F8F6EE"/>
<path fill-rule="evenodd" clip-rule="evenodd" d="M286.5 107.5C292.209 106.867 294.209 109.2 292.5 114.5C285.556 116.261 283.556 113.927 286.5 107.5Z" fill="#E7D8C6"/>
<path fill-rule="evenodd" clip-rule="evenodd" d="M75.5 126.5C76.9778 126.238 78.3112 126.571 79.5 127.5C82.3546 130.52 85.0213 133.687 87.5 137C95.2848 137.362 102.951 136.529 110.5 134.5C114.989 134.833 116.489 137.167 115 141.5C113.874 142.944 112.374 143.61 110.5 143.5C107.833 142.167 105.167 140.833 102.5 139.5C96.8878 140.882 91.2211 141.382 85.5 141C82.6667 136.833 79.1667 133.333 75 130.5C74.805 129.181 74.9717 127.847 75.5 126.5Z" fill="#F8F6EF"/>
<path fill-rule="evenodd" clip-rule="evenodd" d="M307.5 126.5C310.68 126.176 311.847 127.51 311 130.5C306.833 133.333 303.333 136.833 300.5 141C294.62 141.327 288.786 140.827 283 139.5C279.285 140.029 275.952 141.362 273 143.5C268.918 142.841 267.584 140.508 269 136.5C272.081 133.246 275.415 133.246 279 136.5C285.086 135.927 291.086 136.593 297 138.5C301.082 134.924 304.582 130.924 307.5 126.5Z" fill="#F9F6ED"/>
<path fill-rule="evenodd" clip-rule="evenodd" d="M68.5 149.5C86.1525 150.112 103.819 150.779 121.5 151.5C121.167 152.167 120.833 152.833 120.5 153.5C103.978 154.812 87.4782 154.812 71 153.5C69.9895 153.892 69.4895 154.559 69.5 155.5C68.5344 153.604 68.2011 151.604 68.5 149.5Z" fill="#FBFAF4"/>
<path fill-rule="evenodd" clip-rule="evenodd" d="M313.5 149.5C314.833 149.5 316.167 149.5 317.5 149.5C317.949 151.977 317.283 153.977 315.5 155.5C298.867 154.847 282.201 154.18 265.5 153.5C265.167 152.833 264.833 152.167 264.5 151.5C280.995 150.833 297.328 150.167 313.5 149.5Z" fill="#FCFAF4"/>
<path fill-rule="evenodd" clip-rule="evenodd" d="M67.5 163.5C83.809 164.274 100.142 164.774 116.5 165C115.663 166.011 115.33 167.178 115.5 168.5C100.83 168.333 86.1629 168.5 71.5 169C70.4642 170.617 69.2975 170.784 68 169.5C67.5045 167.527 67.3379 165.527 67.5 163.5Z" fill="#FBFAF4"/>
<path fill-rule="evenodd" clip-rule="evenodd" d="M314.5 163.5C318.677 162.842 320.177 164.508 319 168.5C317.637 170.784 316.137 170.951 314.5 169C299.822 168.833 285.155 168.333 270.5 167.5C270.167 166.833 269.833 166.167 269.5 165.5C284.661 164.833 299.661 164.167 314.5 163.5Z" fill="#F9F8F2"/>
<path fill-rule="evenodd" clip-rule="evenodd" d="M100.5 177.5C108.456 178.294 111.623 182.627 110 190.5C106.211 195.881 101.378 196.881 95.5 193.5C90.4224 185.887 92.0891 180.553 100.5 177.5Z" fill="#FAF8F1"/>
<path fill-rule="evenodd" clip-rule="evenodd" d="M99.5 181.5C106.341 182.016 108.007 185.182 104.5 191C99.9322 192.65 97.2656 191.15 96.5 186.5C97.0924 184.577 98.0924 182.911 99.5 181.5Z" fill="#E6D7C4"/>
<path fill-rule="evenodd" clip-rule="evenodd" d="M283.5 177.5C290.967 178.131 294.134 182.131 293 189.5C290.598 195.092 286.431 196.925 280.5 195C275.391 191.634 274.224 187.134 277 181.5C278.792 179.372 280.958 178.039 283.5 177.5Z" fill="#F9F8F1"/>
<path fill-rule="evenodd" clip-rule="evenodd" d="M282.5 181.5C289.297 182.107 290.964 185.274 287.5 191C281.507 192.668 279.007 190.502 280 184.5C280.698 183.309 281.531 182.309 282.5 181.5Z" fill="#E8D9C5"/>
<path fill-rule="evenodd" clip-rule="evenodd" d="M66.5 181.5C73.2589 181.423 77.0923 184.757 78 191.5C82.5905 194.879 87.0905 198.379 91.5 202C99.4931 202.5 107.493 202.666 115.5 202.5C115.5 203.833 115.5 205.167 115.5 206.5C108.159 206.666 100.826 206.5 93.5 206C91.3921 205.64 89.3921 204.973 87.5 204C83.7384 201.039 79.905 198.206 76 195.5C70.2368 199.97 65.2368 199.303 61 193.5C59.7029 187.833 61.5362 183.833 66.5 181.5Z" fill="#F8F4EA"/>
<path fill-rule="evenodd" clip-rule="evenodd" d="M314.5 181.5C321.985 181.483 325.485 185.15 325 192.5C321.141 199.139 316.141 200.139 310 195.5C305.117 199.376 299.951 202.876 294.5 206C286.507 206.5 278.507 206.666 270.5 206.5C270.5 205.167 270.5 203.833 270.5 202.5C285.714 206.074 298.214 202.074 308 190.5C308.833 186.506 310.999 183.506 314.5 181.5Z" fill="#F8F5EB"/>
<path fill-rule="evenodd" clip-rule="evenodd" d="M67.5 212.5C69.4286 212.231 71.0953 212.731 72.5 214C87.8442 214.167 103.178 214.667 118.5 215.5C118.833 216.167 119.167 216.833 119.5 217.5C102.979 218.188 86.4787 218.854 70 219.5C69.228 219.355 68.5613 219.022 68 218.5C67.5045 216.527 67.3379 214.527 67.5 212.5Z" fill="#FBFAF6"/>
<path fill-rule="evenodd" clip-rule="evenodd" d="M315.5 212.5C317.359 212.461 318.692 213.294 319.5 215C319.034 217.123 317.867 218.623 316 219.5C299.521 218.854 283.021 218.188 266.5 217.5C266.833 216.833 267.167 216.167 267.5 215.5C283.156 214.667 298.823 214.167 314.5 214C315.056 213.617 315.389 213.117 315.5 212.5Z" fill="#FCFAF6"/>
<path fill-rule="evenodd" clip-rule="evenodd" d="M193.5 206.5C194.922 206.709 196.255 207.209 197.5 208C220.833 226.333 244.167 244.667 267.5 263C265.333 265.167 263.167 267.333 261 269.5C260.667 269.167 260.333 268.833 260 268.5C259.347 271.807 257.681 274.473 255 276.5C231 257.833 207 239.167 183 220.5C182.333 219.5 182.333 218.5 183 217.5C186.704 213.964 190.204 210.298 193.5 206.5Z" fill="#FCF8EE"/>
<path fill-rule="evenodd" clip-rule="evenodd" d="M110.5 227.5C117.486 227.331 119.153 230.164 115.5 236C112.672 236.969 110.338 236.303 108.5 234C101.947 232.021 95.2805 231.354 88.5 232C85.482 237.567 81.6487 242.4 77 246.5C74.8125 245.941 74.1458 244.607 75 242.5C79.4057 238.545 83.239 234.045 86.5 229C93.1897 228.286 99.8564 228.452 106.5 229.5C108.355 229.66 109.688 228.993 110.5 227.5Z" fill="#F8F6ED"/>
<path fill-rule="evenodd" clip-rule="evenodd" d="M255.5 236.5C264.408 243.567 272.908 251.234 281 259.5C285.551 252.529 290.884 251.862 297 257.5C298.598 268.571 294.098 272.405 283.5 269C274.221 258.387 264.221 248.387 253.5 239C254.381 238.292 255.047 237.458 255.5 236.5Z" fill="#F8F7F0"/>
<path fill-rule="evenodd" clip-rule="evenodd" d="M270.5 227.5C273.876 227.474 277.042 228.141 280 229.5C286.838 228.303 293.672 228.303 300.5 229.5C303.542 234.278 307.042 238.612 311 242.5C311.833 245.667 310.667 246.833 307.5 246C304.045 241.589 300.711 237.089 297.5 232.5C290.767 231.53 284.1 232.03 277.5 234C275.662 236.303 273.328 236.969 270.5 236C267.925 233.174 267.925 230.341 270.5 227.5Z" fill="#F8F6EF"/>
<path fill-rule="evenodd" clip-rule="evenodd" d="M287.5 257.5C293.643 258.026 294.976 260.86 291.5 266C284.344 265.856 283.011 263.023 287.5 257.5Z" fill="#E8DAC7"/>
<path fill-rule="evenodd" clip-rule="evenodd" d="M128.5 236.5C130.686 236.511 131.519 237.511 131 239.5C120.457 249.342 110.291 259.509 100.5 270C91.338 272.161 87.1713 268.661 88 259.5C93.2591 251.895 99.0924 251.562 105.5 258.5C113.214 251.118 120.88 243.784 128.5 236.5Z" fill="#F5F1E6"/>
<path fill-rule="evenodd" clip-rule="evenodd" d="M140.5 248.5C142.686 248.511 143.519 249.511 143 251.5C137 257.5 131 263.5 125 269.5C127.409 277.712 125.076 283.712 118 287.5C116.887 288.76 116.72 289.927 117.5 291C120.551 291.857 123.217 291.19 125.5 289C128.704 286.131 131.537 282.965 134 279.5C136.748 270.082 141.915 262.249 149.5 256C151.076 255.612 152.409 256.112 153.5 257.5C150.009 261.125 146.509 264.791 143 268.5C139.874 279.939 133.374 288.773 123.5 295C119.705 295.837 116.039 295.504 112.5 294C111.424 292.274 111.257 290.441 112 288.5C115 285.5 118 282.5 121 279.5C121.119 274.718 121.785 270.051 123 265.5C128.812 259.703 134.646 254.036 140.5 248.5Z" fill="#F7F5ED"/>
<path fill-rule="evenodd" clip-rule="evenodd" d="M161.5 261.5C163.288 261.215 164.955 261.548 166.5 262.5C162.182 267.319 157.682 271.985 153 276.5C152.297 283.687 152.464 290.853 153.5 298C152.259 306.232 147.592 309.232 139.5 307C133.881 300.958 134.215 295.291 140.5 290C143.146 289.503 145.813 289.336 148.5 289.5C148.161 284.07 148.661 278.736 150 273.5C154.325 269.8 158.158 265.8 161.5 261.5Z" fill="#F5F0E7"/>
<path fill-rule="evenodd" clip-rule="evenodd" d="M216.5 281.5C223.998 281.17 225.831 284.17 222 290.5C221.333 296.833 221.333 303.167 222 309.5C224.277 312.335 223.61 314.002 220 314.5C216.298 314.094 215.632 312.427 218 309.5C218.667 303.167 218.667 296.833 218 290.5C214.026 288.078 213.526 285.078 216.5 281.5Z" fill="#FAF8F0"/>
<path fill-rule="evenodd" clip-rule="evenodd" d="M246.5 278.5C248.255 279.072 249.922 279.906 251.5 281C255.236 285.924 259.903 289.424 265.5 291.5C266.5 291.167 267.5 290.833 268.5 290.5C265.833 287.5 263.167 284.5 260.5 281.5C261.145 280.354 261.978 279.354 263 278.5C266.333 281.833 269.667 285.167 273 288.5C274.015 293.868 271.682 296.201 266 295.5C256.593 293.265 250.093 287.599 246.5 278.5Z" fill="#F6F4EE"/>
<path fill-rule="evenodd" clip-rule="evenodd" d="M162.5 281.5C164.604 281.201 166.604 281.534 168.5 282.5C170.114 285.595 169.614 288.261 167 290.5C166.833 293.833 166.667 297.167 166.5 300.5C166.611 304.481 167.278 308.314 168.5 312C168.138 313.885 166.971 314.719 165 314.5C161.39 314.002 160.723 312.335 163 309.5C163.667 303.167 163.667 296.833 163 290.5C159.861 287.647 159.694 284.647 162.5 281.5Z" fill="#FAF8EF"/>
<path fill-rule="evenodd" clip-rule="evenodd" d="M220.5 261.5C226.075 265.567 231.241 270.234 236 275.5C236.333 280.5 236.667 285.5 237 290.5C246.809 288.435 250.809 292.435 249 302.5C246.459 307.069 242.625 308.569 237.5 307C233.5 305.333 231.5 302.333 231.5 298C232.536 290.853 232.703 283.687 232 276.5C228 272.5 224 268.5 220 264.5C219.53 263.423 219.697 262.423 220.5 261.5Z" fill="#F9F7EF"/>
<path fill-rule="evenodd" clip-rule="evenodd" d="M238.5 293.5C245.632 293.789 247.298 296.956 243.5 303C235.408 303.09 233.741 299.923 238.5 293.5Z" fill="#EEDECA"/>
<path fill-rule="evenodd" clip-rule="evenodd" d="M177.5 265.5C178.833 265.5 180.167 265.5 181.5 265.5C181.333 278.504 181.5 291.504 182 304.5C184.382 307.219 187.049 309.553 190 311.5C191.829 310.534 193.662 310.367 195.5 311C198 308.5 200.5 306 203 303.5C203.5 290.838 203.667 278.171 203.5 265.5C204.833 265.5 206.167 265.5 207.5 265.5C207.667 278.504 207.5 291.504 207 304.5C202.532 308.96 198.865 313.96 196 319.5C190.775 321.633 187.608 319.966 186.5 314.5C183.877 311.375 181.044 308.375 178 305.5C177.5 292.171 177.333 278.837 177.5 265.5Z" fill="#FAF8F0"/>
<path fill-rule="evenodd" clip-rule="evenodd" d="M190.5 292.5C196.114 292.75 197.947 295.416 196 300.5C195.667 300.167 195.333 299.833 195 299.5C194.653 301.18 193.653 302.18 192 302.5C186.661 299.824 186.161 296.491 190.5 292.5Z" fill="#FAF8F2"/>
<path fill-rule="evenodd" clip-rule="evenodd" d="M319.5 355.5C320.568 354.566 321.901 354.232 323.5 354.5C323.719 355.675 323.386 356.675 322.5 357.5C321.735 356.388 320.735 355.721 319.5 355.5Z" fill="#D5965B"/>
<path fill-rule="evenodd" clip-rule="evenodd" d="M245.5 355.5C248.95 354.756 250.616 356.09 250.5 359.5C248.5 359.5 246.5 359.5 244.5 359.5C244.433 358.041 244.766 356.708 245.5 355.5Z" fill="#EED2B5"/>
<path fill-rule="evenodd" clip-rule="evenodd" d="M291.5 355.5C294.95 354.756 296.616 356.09 296.5 359.5C294.5 359.5 292.5 359.5 290.5 359.5C290.433 358.041 290.766 356.708 291.5 355.5Z" fill="#EED3B5"/>
<path fill-rule="evenodd" clip-rule="evenodd" d="M367.5 355.5C368.833 355.5 370.167 355.5 371.5 355.5C371.949 357.977 371.283 359.977 369.5 361.5C367.717 359.977 367.051 357.977 367.5 355.5Z" fill="#F3DFC8"/>
<path d="M56.5273 365.707L59.2109 367.324C60.5234 368.098 61.5664 368.625 62.3398 368.906C63.1133 369.195 63.8477 369.34 64.543 369.34C64.7695 369.34 65.0352 369.32 65.3398 369.281C65.6445 369.242 66.0117 369.18 66.4414 369.094L66.582 369.82C65.4727 370.133 64.6484 370.336 64.1094 370.43C63.5781 370.531 63.1055 370.582 62.6914 370.582C61.0273 370.582 58.2461 369.262 54.3477 366.621L53.8672 366.293C53.8125 366.293 53.7266 366.297 53.6094 366.305C53.5 366.312 53.418 366.316 53.3633 366.316C50.9727 366.316 48.9961 365.496 47.4336 363.855C45.8789 362.215 45.1016 360.145 45.1016 357.645C45.1016 356.395 45.332 355.223 45.793 354.129C46.2617 353.035 46.9375 352.062 47.8203 351.211C48.6016 350.461 49.4922 349.887 50.4922 349.488C51.4922 349.09 52.5352 348.891 53.6211 348.891C54.793 348.891 55.8438 349.062 56.7734 349.406C57.7109 349.75 58.5586 350.273 59.3164 350.977C60.2305 351.844 60.9297 352.844 61.4141 353.977C61.8984 355.109 62.1406 356.309 62.1406 357.574C62.1406 359.512 61.6523 361.191 60.6758 362.613C59.6992 364.035 58.3164 365.066 56.5273 365.707ZM59.5508 357.984C59.5508 355.711 58.9648 353.848 57.793 352.395C56.6211 350.934 55.1445 350.203 53.3633 350.203C51.6523 350.203 50.2773 350.828 49.2383 352.078C48.207 353.328 47.6914 355 47.6914 357.094C47.6914 359.445 48.2812 361.359 49.4609 362.836C50.6406 364.305 52.1406 365.039 53.9609 365.039C55.6328 365.039 56.9805 364.398 58.0039 363.117C59.0352 361.828 59.5508 360.117 59.5508 357.984ZM67.543 354.152C67.4883 355.684 67.4453 357.027 67.4141 358.184C67.3828 359.332 67.3672 360.129 67.3672 360.574C67.3672 362.246 67.5391 363.363 67.8828 363.926C68.2266 364.48 68.8164 364.758 69.6523 364.758C70.0664 364.758 70.5273 364.656 71.0352 364.453C71.543 364.25 72.1211 363.941 72.7695 363.527C72.793 362.324 72.8086 361.332 72.8164 360.551C72.832 359.77 72.8398 359.195 72.8398 358.828V358.031C72.8398 357.047 72.7578 356.43 72.5938 356.18C72.4297 355.93 72.1133 355.805 71.6445 355.805C71.5664 355.805 71.4805 355.809 71.3867 355.816C71.3008 355.816 71.2109 355.82 71.1172 355.828L71.0469 355.078C71.7109 355.031 72.3633 354.957 73.0039 354.855C73.6523 354.754 74.2852 354.629 74.9023 354.48C74.8555 355.816 74.8203 357.008 74.7969 358.055C74.7734 359.102 74.7617 360.016 74.7617 360.797C74.7617 361.117 74.7578 361.52 74.75 362.004C74.7422 362.48 74.7383 362.797 74.7383 362.953C74.7383 363.68 74.8008 364.156 74.9258 364.383C75.0508 364.609 75.2852 364.723 75.6289 364.723C75.707 364.723 75.7969 364.715 75.8984 364.699C76.0078 364.684 76.1484 364.652 76.3203 364.605L76.4141 365.332L72.8398 366.234L72.793 364.488C71.9492 365.129 71.207 365.598 70.5664 365.895C69.9336 366.191 69.3555 366.34 68.832 366.34C67.7617 366.34 66.9258 366.031 66.3242 365.414C65.7227 364.797 65.4219 363.938 65.4219 362.836C65.4219 362.555 65.4336 361.965 65.457 361.066C65.4648 360.691 65.4688 360.398 65.4688 360.188L65.5039 358.875C65.5039 358.656 65.5078 358.379 65.5156 358.043C65.5234 357.699 65.5273 357.465 65.5273 357.34C65.5273 356.668 65.4688 356.223 65.3516 356.004C65.2422 355.785 65.0352 355.676 64.7305 355.676C64.6367 355.676 64.5273 355.684 64.4023 355.699C64.2773 355.715 64.1484 355.73 64.0156 355.746L63.9336 354.984C64.4961 354.891 65.0742 354.777 65.668 354.645C66.2695 354.504 66.8945 354.34 67.543 354.152ZM88.6133 364.301L88.9414 365.039C88.3555 365.461 87.8203 365.785 87.3359 366.012C86.8516 366.246 86.4609 366.363 86.1641 366.363C85.6641 366.363 85.2891 366.219 85.0391 365.93C84.7891 365.633 84.6523 365.188 84.6289 364.594C83.7773 365.164 83.0703 365.574 82.5078 365.824C81.9453 366.066 81.4414 366.188 80.9961 366.188C80.207 366.188 79.5469 365.891 79.0156 365.297C78.4844 364.703 78.2188 363.977 78.2188 363.117C78.2188 361.656 79.793 360.555 82.9414 359.812C83.6836 359.641 84.2617 359.504 84.6758 359.402C84.6758 359.27 84.6797 359.078 84.6875 358.828C84.7109 358.312 84.7227 357.977 84.7227 357.82C84.7227 357.008 84.5547 356.41 84.2188 356.027C83.8828 355.637 83.3711 355.441 82.6836 355.441C82.0117 355.441 81.4805 355.566 81.0898 355.816C80.707 356.059 80.5156 356.391 80.5156 356.812C80.5156 356.852 80.5195 356.906 80.5273 356.977C80.5352 357.039 80.5391 357.086 80.5391 357.117C80.5391 357.359 80.4219 357.562 80.1875 357.727C79.9531 357.883 79.6719 357.961 79.3438 357.961C79.0625 357.961 78.8555 357.914 78.7227 357.82C78.5898 357.727 78.5234 357.582 78.5234 357.387C78.5234 356.762 79.0508 356.066 80.1055 355.301C81.1602 354.527 82.25 354.141 83.375 354.141C84.4609 354.141 85.2852 354.441 85.8477 355.043C86.4102 355.637 86.6914 356.512 86.6914 357.668C86.6914 358.293 86.6523 359.254 86.5742 360.551C86.5039 361.848 86.4688 362.832 86.4688 363.504C86.4688 364.012 86.5234 364.355 86.6328 364.535C86.75 364.715 86.9531 364.805 87.2422 364.805C87.3672 364.805 87.5273 364.77 87.7227 364.699C87.9258 364.621 88.2227 364.488 88.6133 364.301ZM84.6172 360.34C84.4688 360.379 84.2461 360.438 83.9492 360.516C81.4102 361.211 80.1406 362.031 80.1406 362.977C80.1406 363.492 80.3047 363.914 80.6328 364.242C80.9609 364.562 81.3945 364.723 81.9336 364.723C82.2617 364.723 82.6406 364.637 83.0703 364.465C83.5 364.293 84 364.02 84.5703 363.645L84.6172 360.34ZM93.3242 354.023L93.1836 355.992C94.0664 355.352 94.832 354.887 95.4805 354.598C96.1367 354.309 96.7383 354.164 97.2852 354.164C98.4336 354.164 99.2969 354.488 99.875 355.137C100.453 355.785 100.742 356.758 100.742 358.055C100.742 358.062 100.738 358.406 100.73 359.086C100.723 359.766 100.719 360.445 100.719 361.125C100.719 361.414 100.715 361.777 100.707 362.215C100.699 362.645 100.695 362.938 100.695 363.094C100.695 363.969 100.773 364.539 100.93 364.805C101.086 365.07 101.383 365.203 101.82 365.203C101.844 365.203 101.887 365.199 101.949 365.191C102.02 365.184 102.07 365.18 102.102 365.18V366C101.398 365.953 100.867 365.922 100.508 365.906C100.148 365.891 99.8477 365.883 99.6055 365.883C99.2305 365.883 98.8242 365.895 98.3867 365.918C97.9492 365.934 97.5039 365.961 97.0508 366L97.0391 365.18H97.2148C98.2148 365.18 98.7227 364.266 98.7383 362.438C98.7461 362.336 98.75 362.258 98.75 362.203L98.7734 359.684V359.262C98.7734 357.816 98.6055 356.859 98.2695 356.391C97.9336 355.914 97.3555 355.676 96.5352 355.676C96.082 355.676 95.5781 355.785 95.0234 356.004C94.4766 356.215 93.8945 356.531 93.2773 356.953C93.2461 357.766 93.2227 358.535 93.207 359.262C93.1914 359.98 93.1836 360.633 93.1836 361.219V362.836C93.1836 363.867 93.2578 364.52 93.4062 364.793C93.5625 365.066 93.8633 365.203 94.3086 365.203C94.3398 365.203 94.3867 365.199 94.4492 365.191C94.5195 365.184 94.5742 365.18 94.6133 365.18V366C93.9414 365.953 93.4102 365.922 93.0195 365.906C92.6367 365.891 92.3203 365.883 92.0703 365.883C91.8359 365.883 91.5273 365.891 91.1445 365.906C90.7617 365.922 90.2266 365.953 89.5391 366L89.5273 365.18H89.75C90.7266 365.18 91.2188 364.23 91.2266 362.332C91.2266 362.051 91.2305 361.832 91.2383 361.676L91.2617 358.805V357.645C91.2617 356.879 91.2031 356.379 91.0859 356.145C90.9688 355.902 90.7539 355.781 90.4414 355.781C90.3789 355.781 90.2969 355.789 90.1953 355.805C90.1016 355.82 90 355.844 89.8906 355.875L89.75 355.148C90.3359 355.039 90.9219 354.891 91.5078 354.703C92.1016 354.516 92.707 354.289 93.3242 354.023ZM106.613 352.277L107.387 352.512C107.34 352.941 107.301 353.328 107.27 353.672C107.246 354.008 107.23 354.34 107.223 354.668H108.055C108.5 354.668 108.953 354.664 109.414 354.656C109.875 354.641 110.34 354.621 110.809 354.598L110.527 355.875C110.027 355.836 109.555 355.812 109.109 355.805C108.672 355.789 108.234 355.781 107.797 355.781H107.246C107.199 357.125 107.164 358.156 107.141 358.875C107.125 359.586 107.117 360.176 107.117 360.645C107.117 362.41 107.238 363.562 107.48 364.102C107.723 364.633 108.156 364.898 108.781 364.898C109.039 364.898 109.324 364.844 109.637 364.734C109.957 364.625 110.344 364.445 110.797 364.195L111.184 364.969C110.434 365.422 109.754 365.766 109.145 366C108.535 366.227 108.004 366.34 107.551 366.34C106.715 366.34 106.105 366.055 105.723 365.484C105.34 364.906 105.148 363.98 105.148 362.707C105.148 362.457 105.164 361.566 105.195 360.035C105.234 358.496 105.254 357.086 105.254 355.805C105.184 355.805 105.082 355.809 104.949 355.816C104.301 355.84 103.855 355.852 103.613 355.852V355.008C104.379 354.898 105.012 354.617 105.512 354.164C106.012 353.703 106.379 353.074 106.613 352.277ZM115.871 354.152C115.816 355.684 115.773 357.027 115.742 358.184C115.711 359.332 115.695 360.129 115.695 360.574C115.695 362.246 115.867 363.363 116.211 363.926C116.555 364.48 117.145 364.758 117.98 364.758C118.395 364.758 118.855 364.656 119.363 364.453C119.871 364.25 120.449 363.941 121.098 363.527C121.121 362.324 121.137 361.332 121.145 360.551C121.16 359.77 121.168 359.195 121.168 358.828V358.031C121.168 357.047 121.086 356.43 120.922 356.18C120.758 355.93 120.441 355.805 119.973 355.805C119.895 355.805 119.809 355.809 119.715 355.816C119.629 355.816 119.539 355.82 119.445 355.828L119.375 355.078C120.039 355.031 120.691 354.957 121.332 354.855C121.98 354.754 122.613 354.629 123.23 354.48C123.184 355.816 123.148 357.008 123.125 358.055C123.102 359.102 123.09 360.016 123.09 360.797C123.09 361.117 123.086 361.52 123.078 362.004C123.07 362.48 123.066 362.797 123.066 362.953C123.066 363.68 123.129 364.156 123.254 364.383C123.379 364.609 123.613 364.723 123.957 364.723C124.035 364.723 124.125 364.715 124.227 364.699C124.336 364.684 124.477 364.652 124.648 364.605L124.742 365.332L121.168 366.234L121.121 364.488C120.277 365.129 119.535 365.598 118.895 365.895C118.262 366.191 117.684 366.34 117.16 366.34C116.09 366.34 115.254 366.031 114.652 365.414C114.051 364.797 113.75 363.938 113.75 362.836C113.75 362.555 113.762 361.965 113.785 361.066C113.793 360.691 113.797 360.398 113.797 360.188L113.832 358.875C113.832 358.656 113.836 358.379 113.844 358.043C113.852 357.699 113.855 357.465 113.855 357.34C113.855 356.668 113.797 356.223 113.68 356.004C113.57 355.785 113.363 355.676 113.059 355.676C112.965 355.676 112.855 355.684 112.73 355.699C112.605 355.715 112.477 355.73 112.344 355.746L112.262 354.984C112.824 354.891 113.402 354.777 113.996 354.645C114.598 354.504 115.223 354.34 115.871 354.152ZM130.016 354.023C129.984 354.344 129.957 354.656 129.934 354.961C129.91 355.258 129.895 355.559 129.887 355.863C130.949 355.191 131.777 354.742 132.371 354.516C132.965 354.281 133.535 354.164 134.082 354.164C134.746 354.164 135.309 354.316 135.77 354.621C136.238 354.926 136.637 355.406 136.965 356.062C138.012 355.367 138.867 354.879 139.531 354.598C140.195 354.309 140.793 354.164 141.324 354.164C142.465 354.164 143.293 354.512 143.809 355.207C144.332 355.902 144.594 357.027 144.594 358.582V358.828L144.547 362.684C144.547 363.074 144.539 363.43 144.523 363.75C144.523 363.773 144.523 363.789 144.523 363.797C144.523 364.359 144.609 364.73 144.781 364.91C144.953 365.09 145.297 365.18 145.812 365.18H146.082V366C145.324 365.953 144.758 365.922 144.383 365.906C144.008 365.891 143.703 365.883 143.469 365.883C143.219 365.883 142.906 365.891 142.531 365.906C142.164 365.922 141.637 365.953 140.949 366V365.18C140.996 365.188 141.055 365.195 141.125 365.203C141.195 365.203 141.293 365.203 141.418 365.203C141.918 365.203 142.25 365.043 142.414 364.723C142.586 364.395 142.672 363.605 142.672 362.355V360.645C142.672 360.363 142.676 359.992 142.684 359.531C142.691 359.07 142.695 358.746 142.695 358.559C142.695 357.559 142.512 356.824 142.145 356.355C141.785 355.887 141.227 355.652 140.469 355.652C140.102 355.652 139.664 355.75 139.156 355.945C138.648 356.141 138.02 356.453 137.27 356.883L137.176 362.66V363.621C137.176 364.324 137.262 364.762 137.434 364.934C137.613 365.098 137.977 365.18 138.523 365.18H138.664V365.988C138.047 365.957 137.531 365.934 137.117 365.918C136.703 365.895 136.348 365.883 136.051 365.883C135.754 365.883 135.406 365.895 135.008 365.918C134.609 365.934 134.191 365.961 133.754 366L133.742 365.18C134.289 365.18 134.645 365.137 134.809 365.051C134.973 364.957 135.09 364.746 135.16 364.418C135.215 364.16 135.254 363.508 135.277 362.461C135.309 361.414 135.324 360.074 135.324 358.441C135.324 357.465 135.148 356.758 134.797 356.32C134.453 355.875 133.902 355.652 133.145 355.652C132.777 355.652 132.336 355.75 131.82 355.945C131.312 356.133 130.699 356.43 129.98 356.836C129.934 358.109 129.898 359.215 129.875 360.152C129.859 361.09 129.852 361.941 129.852 362.707C129.852 363.902 129.93 364.617 130.086 364.852C130.25 365.086 130.59 365.203 131.105 365.203C131.145 365.203 131.203 365.199 131.281 365.191C131.367 365.184 131.438 365.18 131.492 365.18L131.48 366C130.996 365.961 130.527 365.934 130.074 365.918C129.621 365.895 129.195 365.883 128.797 365.883C128.453 365.883 128.07 365.895 127.648 365.918C127.227 365.934 126.781 365.961 126.312 366L126.301 365.18H126.523C127.5 365.18 127.992 364.23 128 362.332C128 362.051 128.004 361.832 128.012 361.676L128.035 358.805V357.645C128.035 356.879 127.977 356.379 127.859 356.145C127.742 355.902 127.527 355.781 127.215 355.781C127.152 355.781 127.07 355.789 126.969 355.805C126.875 355.82 126.773 355.844 126.664 355.875L126.523 355.148C127.102 354.992 127.684 354.82 128.27 354.633C128.855 354.445 129.438 354.242 130.016 354.023ZM168.863 349.805V350.203C168.863 350.75 168.883 351.32 168.922 351.914C168.961 352.5 169.02 353.117 169.098 353.766L168.242 353.906C168.086 352.781 167.555 351.906 166.648 351.281C165.742 350.648 164.559 350.332 163.098 350.332C161.152 350.332 159.648 350.93 158.586 352.125C157.531 353.312 157.004 355 157.004 357.188C157.004 359.523 157.609 361.414 158.82 362.859C160.039 364.297 161.617 365.016 163.555 365.016C164.773 365.016 165.828 364.734 166.719 364.172C167.617 363.609 168.316 362.785 168.816 361.699L169.602 362.086C169.352 362.594 169.125 363.113 168.922 363.645C168.719 364.168 168.539 364.695 168.383 365.227C167.539 365.609 166.68 365.898 165.805 366.094C164.93 366.289 164.051 366.387 163.168 366.387C160.574 366.387 158.473 365.586 156.863 363.984C155.262 362.375 154.461 360.262 154.461 357.645C154.461 355.066 155.309 352.969 157.004 351.352C158.699 349.727 160.891 348.914 163.578 348.914C164.375 348.914 165.215 348.988 166.098 349.137C166.988 349.285 167.91 349.508 168.863 349.805ZM176.879 355.395C175.832 355.395 174.988 355.777 174.348 356.543C173.715 357.301 173.398 358.324 173.398 359.613C173.398 361.262 173.75 362.598 174.453 363.621C175.164 364.645 176.086 365.156 177.219 365.156C178.312 365.156 179.184 364.75 179.832 363.938C180.488 363.125 180.816 362.02 180.816 360.621C180.816 359.09 180.445 357.836 179.703 356.859C178.969 355.883 178.027 355.395 176.879 355.395ZM177.184 354.164C178.832 354.164 180.195 354.719 181.273 355.828C182.359 356.93 182.902 358.297 182.902 359.93C182.902 361.727 182.332 363.242 181.191 364.477C180.051 365.703 178.645 366.316 176.973 366.316C175.301 366.316 173.926 365.754 172.848 364.629C171.777 363.504 171.242 362.082 171.242 360.363C171.242 358.645 171.824 357.184 172.988 355.98C174.16 354.77 175.559 354.164 177.184 354.164ZM188 354.023C187.969 354.344 187.941 354.656 187.918 354.961C187.895 355.258 187.879 355.559 187.871 355.863C188.934 355.191 189.762 354.742 190.355 354.516C190.949 354.281 191.52 354.164 192.066 354.164C192.73 354.164 193.293 354.316 193.754 354.621C194.223 354.926 194.621 355.406 194.949 356.062C195.996 355.367 196.852 354.879 197.516 354.598C198.18 354.309 198.777 354.164 199.309 354.164C200.449 354.164 201.277 354.512 201.793 355.207C202.316 355.902 202.578 357.027 202.578 358.582V358.828L202.531 362.684C202.531 363.074 202.523 363.43 202.508 363.75C202.508 363.773 202.508 363.789 202.508 363.797C202.508 364.359 202.594 364.73 202.766 364.91C202.938 365.09 203.281 365.18 203.797 365.18H204.066V366C203.309 365.953 202.742 365.922 202.367 365.906C201.992 365.891 201.688 365.883 201.453 365.883C201.203 365.883 200.891 365.891 200.516 365.906C200.148 365.922 199.621 365.953 198.934 366V365.18C198.98 365.188 199.039 365.195 199.109 365.203C199.18 365.203 199.277 365.203 199.402 365.203C199.902 365.203 200.234 365.043 200.398 364.723C200.57 364.395 200.656 363.605 200.656 362.355V360.645C200.656 360.363 200.66 359.992 200.668 359.531C200.676 359.07 200.68 358.746 200.68 358.559C200.68 357.559 200.496 356.824 200.129 356.355C199.77 355.887 199.211 355.652 198.453 355.652C198.086 355.652 197.648 355.75 197.141 355.945C196.633 356.141 196.004 356.453 195.254 356.883L195.16 362.66V363.621C195.16 364.324 195.246 364.762 195.418 364.934C195.598 365.098 195.961 365.18 196.508 365.18H196.648V365.988C196.031 365.957 195.516 365.934 195.102 365.918C194.688 365.895 194.332 365.883 194.035 365.883C193.738 365.883 193.391 365.895 192.992 365.918C192.594 365.934 192.176 365.961 191.738 366L191.727 365.18C192.273 365.18 192.629 365.137 192.793 365.051C192.957 364.957 193.074 364.746 193.145 364.418C193.199 364.16 193.238 363.508 193.262 362.461C193.293 361.414 193.309 360.074 193.309 358.441C193.309 357.465 193.133 356.758 192.781 356.32C192.438 355.875 191.887 355.652 191.129 355.652C190.762 355.652 190.32 355.75 189.805 355.945C189.297 356.133 188.684 356.43 187.965 356.836C187.918 358.109 187.883 359.215 187.859 360.152C187.844 361.09 187.836 361.941 187.836 362.707C187.836 363.902 187.914 364.617 188.07 364.852C188.234 365.086 188.574 365.203 189.09 365.203C189.129 365.203 189.188 365.199 189.266 365.191C189.352 365.184 189.422 365.18 189.477 365.18L189.465 366C188.98 365.961 188.512 365.934 188.059 365.918C187.605 365.895 187.18 365.883 186.781 365.883C186.438 365.883 186.055 365.895 185.633 365.918C185.211 365.934 184.766 365.961 184.297 366L184.285 365.18H184.508C185.484 365.18 185.977 364.23 185.984 362.332C185.984 362.051 185.988 361.832 185.996 361.676L186.02 358.805V357.645C186.02 356.879 185.961 356.379 185.844 356.145C185.727 355.902 185.512 355.781 185.199 355.781C185.137 355.781 185.055 355.789 184.953 355.805C184.859 355.82 184.758 355.844 184.648 355.875L184.508 355.148C185.086 354.992 185.668 354.82 186.254 354.633C186.84 354.445 187.422 354.242 188 354.023ZM208.812 364.301C209.281 364.527 209.75 364.703 210.219 364.828C210.688 364.953 211.133 365.016 211.555 365.016C212.711 365.016 213.617 364.637 214.273 363.879C214.938 363.113 215.27 362.051 215.27 360.691C215.27 359.223 214.945 358.051 214.297 357.176C213.648 356.293 212.797 355.852 211.742 355.852C211.289 355.852 210.812 355.926 210.312 356.074C209.82 356.223 209.344 356.434 208.883 356.707C208.852 357.848 208.828 358.926 208.812 359.941C208.797 360.957 208.789 361.887 208.789 362.73C208.789 362.879 208.793 363.129 208.801 363.48C208.809 363.824 208.812 364.098 208.812 364.301ZM208.977 353.883L208.883 355.758C209.594 355.266 210.254 354.906 210.863 354.68C211.48 354.453 212.086 354.34 212.68 354.34C213.969 354.34 215.047 354.855 215.914 355.887C216.781 356.91 217.215 358.184 217.215 359.707C217.215 361.691 216.66 363.246 215.551 364.371C214.449 365.488 212.922 366.047 210.969 366.047C210.609 366.047 210.246 366.012 209.879 365.941C209.512 365.863 209.148 365.754 208.789 365.613V369.797C208.789 370.719 209.465 371.188 210.816 371.203H210.828V372.047C210.312 372.008 209.812 371.977 209.328 371.953C208.852 371.938 208.398 371.93 207.969 371.93C207.711 371.93 207.375 371.938 206.961 371.953C206.547 371.969 205.926 372 205.098 372.047V371.203C205.605 371.203 205.949 371.176 206.129 371.121C206.309 371.074 206.445 370.984 206.539 370.852C206.742 370.5 206.852 368.906 206.867 366.07C206.867 365.484 206.867 365.027 206.867 364.699L206.891 362.039V358.758V358.172C206.891 357.203 206.832 356.598 206.715 356.355C206.605 356.113 206.387 355.992 206.059 355.992C205.98 355.992 205.887 356 205.777 356.016C205.668 356.031 205.551 356.055 205.426 356.086L205.309 355.371C205.973 355.184 206.605 354.969 207.207 354.727C207.816 354.477 208.406 354.195 208.977 353.883ZM222.535 354.152C222.48 355.684 222.438 357.027 222.406 358.184C222.375 359.332 222.359 360.129 222.359 360.574C222.359 362.246 222.531 363.363 222.875 363.926C223.219 364.48 223.809 364.758 224.645 364.758C225.059 364.758 225.52 364.656 226.027 364.453C226.535 364.25 227.113 363.941 227.762 363.527C227.785 362.324 227.801 361.332 227.809 360.551C227.824 359.77 227.832 359.195 227.832 358.828V358.031C227.832 357.047 227.75 356.43 227.586 356.18C227.422 355.93 227.105 355.805 226.637 355.805C226.559 355.805 226.473 355.809 226.379 355.816C226.293 355.816 226.203 355.82 226.109 355.828L226.039 355.078C226.703 355.031 227.355 354.957 227.996 354.855C228.645 354.754 229.277 354.629 229.895 354.48C229.848 355.816 229.812 357.008 229.789 358.055C229.766 359.102 229.754 360.016 229.754 360.797C229.754 361.117 229.75 361.52 229.742 362.004C229.734 362.48 229.73 362.797 229.73 362.953C229.73 363.68 229.793 364.156 229.918 364.383C230.043 364.609 230.277 364.723 230.621 364.723C230.699 364.723 230.789 364.715 230.891 364.699C231 364.684 231.141 364.652 231.312 364.605L231.406 365.332L227.832 366.234L227.785 364.488C226.941 365.129 226.199 365.598 225.559 365.895C224.926 366.191 224.348 366.34 223.824 366.34C222.754 366.34 221.918 366.031 221.316 365.414C220.715 364.797 220.414 363.938 220.414 362.836C220.414 362.555 220.426 361.965 220.449 361.066C220.457 360.691 220.461 360.398 220.461 360.188L220.496 358.875C220.496 358.656 220.5 358.379 220.508 358.043C220.516 357.699 220.52 357.465 220.52 357.34C220.52 356.668 220.461 356.223 220.344 356.004C220.234 355.785 220.027 355.676 219.723 355.676C219.629 355.676 219.52 355.684 219.395 355.699C219.27 355.715 219.141 355.73 219.008 355.746L218.926 354.984C219.488 354.891 220.066 354.777 220.66 354.645C221.262 354.504 221.887 354.34 222.535 354.152ZM236.035 352.277L236.809 352.512C236.762 352.941 236.723 353.328 236.691 353.672C236.668 354.008 236.652 354.34 236.645 354.668H237.477C237.922 354.668 238.375 354.664 238.836 354.656C239.297 354.641 239.762 354.621 240.23 354.598L239.949 355.875C239.449 355.836 238.977 355.812 238.531 355.805C238.094 355.789 237.656 355.781 237.219 355.781H236.668C236.621 357.125 236.586 358.156 236.562 358.875C236.547 359.586 236.539 360.176 236.539 360.645C236.539 362.41 236.66 363.562 236.902 364.102C237.145 364.633 237.578 364.898 238.203 364.898C238.461 364.898 238.746 364.844 239.059 364.734C239.379 364.625 239.766 364.445 240.219 364.195L240.605 364.969C239.855 365.422 239.176 365.766 238.566 366C237.957 366.227 237.426 366.34 236.973 366.34C236.137 366.34 235.527 366.055 235.145 365.484C234.762 364.906 234.57 363.98 234.57 362.707C234.57 362.457 234.586 361.566 234.617 360.035C234.656 358.496 234.676 357.086 234.676 355.805C234.605 355.805 234.504 355.809 234.371 355.816C233.723 355.84 233.277 355.852 233.035 355.852V355.008C233.801 354.898 234.434 354.617 234.934 354.164C235.434 353.703 235.801 353.074 236.035 352.277ZM251.891 359.449H246.172C245.727 359.449 245.316 359.457 244.941 359.473C244.566 359.488 244.219 359.512 243.898 359.543V359.977C243.898 361.508 244.25 362.691 244.953 363.527C245.664 364.363 246.664 364.781 247.953 364.781C248.523 364.781 249.086 364.688 249.641 364.5C250.195 364.305 250.785 364.004 251.41 363.598L251.867 364.348C251.062 365.004 250.258 365.5 249.453 365.836C248.656 366.172 247.867 366.34 247.086 366.34C245.57 366.34 244.32 365.801 243.336 364.723C242.352 363.637 241.859 362.246 241.859 360.551C241.859 358.746 242.375 357.23 243.406 356.004C244.438 354.777 245.695 354.164 247.18 354.164C248.562 354.164 249.664 354.625 250.484 355.547C251.305 356.469 251.773 357.77 251.891 359.449ZM249.723 358.219C249.488 357.258 249.133 356.523 248.656 356.016C248.18 355.5 247.609 355.242 246.945 355.242C246.195 355.242 245.551 355.543 245.012 356.145C244.48 356.746 244.133 357.559 243.969 358.582C245.516 358.582 246.73 358.555 247.613 358.5C248.504 358.445 249.207 358.352 249.723 358.219ZM257.105 354.023C257.051 354.555 257.008 355.094 256.977 355.641C256.945 356.18 256.922 356.754 256.906 357.363C257.539 356.246 258.121 355.441 258.652 354.949C259.191 354.457 259.746 354.211 260.316 354.211C260.762 354.211 261.113 354.332 261.371 354.574C261.629 354.809 261.758 355.129 261.758 355.535C261.758 355.824 261.672 356.074 261.5 356.285C261.336 356.488 261.141 356.59 260.914 356.59C260.773 356.59 260.555 356.516 260.258 356.367C259.969 356.211 259.719 356.133 259.508 356.133C259.102 356.133 258.695 356.312 258.289 356.672C257.883 357.023 257.457 357.574 257.012 358.324V359.613C257.012 360.863 257.02 361.879 257.035 362.66C257.059 363.434 257.09 363.926 257.129 364.137C257.199 364.535 257.348 364.809 257.574 364.957C257.809 365.105 258.203 365.18 258.758 365.18H259.098V366C258.488 365.953 257.945 365.918 257.469 365.895C256.992 365.871 256.59 365.859 256.262 365.859C255.809 365.859 255.34 365.871 254.855 365.895C254.379 365.918 253.879 365.953 253.355 366V365.18H253.625C254.195 365.18 254.582 365.043 254.785 364.77C254.988 364.496 255.09 363.859 255.09 362.859V361.629V357.82C255.09 356.977 255.031 356.434 254.914 356.191C254.797 355.949 254.582 355.828 254.27 355.828C254.207 355.828 254.141 355.832 254.07 355.84C254 355.84 253.883 355.852 253.719 355.875L253.578 355.148C254.133 355.023 254.703 354.867 255.289 354.68C255.875 354.492 256.48 354.273 257.105 354.023ZM269.914 349.242C270.75 349.289 271.383 349.324 271.812 349.348C272.25 349.363 272.602 349.371 272.867 349.371C273.375 349.371 273.871 349.363 274.355 349.348C274.848 349.324 275.336 349.293 275.82 349.254V350.062H275.457C274.84 350.062 274.422 350.277 274.203 350.707C273.984 351.129 273.875 352.105 273.875 353.637V355.969L273.91 364.559C274.348 364.582 274.762 364.602 275.152 364.617C275.551 364.625 275.926 364.629 276.277 364.629C278.371 364.629 279.719 364.438 280.32 364.055C280.93 363.664 281.414 362.914 281.773 361.805L282.617 362.062C282.375 362.734 282.16 363.395 281.973 364.043C281.785 364.691 281.621 365.344 281.48 366C280.184 365.961 278.988 365.934 277.895 365.918C276.809 365.895 275.789 365.883 274.836 365.883C274.164 365.883 273.414 365.895 272.586 365.918C271.758 365.934 270.781 365.961 269.656 366V365.238C269.711 365.246 269.762 365.254 269.809 365.262C269.863 365.262 269.941 365.262 270.043 365.262C271.098 365.254 271.629 363.75 271.637 360.75C271.637 360.07 271.641 359.539 271.648 359.156L271.672 355.969C271.672 355.625 271.676 355.184 271.684 354.645C271.691 354.105 271.695 353.73 271.695 353.52C271.695 352.082 271.578 351.148 271.344 350.719C271.117 350.281 270.672 350.062 270.008 350.062H269.914V349.242ZM293.844 359.449H288.125C287.68 359.449 287.27 359.457 286.895 359.473C286.52 359.488 286.172 359.512 285.852 359.543V359.977C285.852 361.508 286.203 362.691 286.906 363.527C287.617 364.363 288.617 364.781 289.906 364.781C290.477 364.781 291.039 364.688 291.594 364.5C292.148 364.305 292.738 364.004 293.363 363.598L293.82 364.348C293.016 365.004 292.211 365.5 291.406 365.836C290.609 366.172 289.82 366.34 289.039 366.34C287.523 366.34 286.273 365.801 285.289 364.723C284.305 363.637 283.812 362.246 283.812 360.551C283.812 358.746 284.328 357.23 285.359 356.004C286.391 354.777 287.648 354.164 289.133 354.164C290.516 354.164 291.617 354.625 292.438 355.547C293.258 356.469 293.727 357.77 293.844 359.449ZM291.676 358.219C291.441 357.258 291.086 356.523 290.609 356.016C290.133 355.5 289.562 355.242 288.898 355.242C288.148 355.242 287.504 355.543 286.965 356.145C286.434 356.746 286.086 357.559 285.922 358.582C287.469 358.582 288.684 358.555 289.566 358.5C290.457 358.445 291.16 358.352 291.676 358.219ZM305.926 364.301L306.254 365.039C305.668 365.461 305.133 365.785 304.648 366.012C304.164 366.246 303.773 366.363 303.477 366.363C302.977 366.363 302.602 366.219 302.352 365.93C302.102 365.633 301.965 365.188 301.941 364.594C301.09 365.164 300.383 365.574 299.82 365.824C299.258 366.066 298.754 366.188 298.309 366.188C297.52 366.188 296.859 365.891 296.328 365.297C295.797 364.703 295.531 363.977 295.531 363.117C295.531 361.656 297.105 360.555 300.254 359.812C300.996 359.641 301.574 359.504 301.988 359.402C301.988 359.27 301.992 359.078 302 358.828C302.023 358.312 302.035 357.977 302.035 357.82C302.035 357.008 301.867 356.41 301.531 356.027C301.195 355.637 300.684 355.441 299.996 355.441C299.324 355.441 298.793 355.566 298.402 355.816C298.02 356.059 297.828 356.391 297.828 356.812C297.828 356.852 297.832 356.906 297.84 356.977C297.848 357.039 297.852 357.086 297.852 357.117C297.852 357.359 297.734 357.562 297.5 357.727C297.266 357.883 296.984 357.961 296.656 357.961C296.375 357.961 296.168 357.914 296.035 357.82C295.902 357.727 295.836 357.582 295.836 357.387C295.836 356.762 296.363 356.066 297.418 355.301C298.473 354.527 299.562 354.141 300.688 354.141C301.773 354.141 302.598 354.441 303.16 355.043C303.723 355.637 304.004 356.512 304.004 357.668C304.004 358.293 303.965 359.254 303.887 360.551C303.816 361.848 303.781 362.832 303.781 363.504C303.781 364.012 303.836 364.355 303.945 364.535C304.062 364.715 304.266 364.805 304.555 364.805C304.68 364.805 304.84 364.77 305.035 364.699C305.238 364.621 305.535 364.488 305.926 364.301ZM301.93 360.34C301.781 360.379 301.559 360.438 301.262 360.516C298.723 361.211 297.453 362.031 297.453 362.977C297.453 363.492 297.617 363.914 297.945 364.242C298.273 364.562 298.707 364.723 299.246 364.723C299.574 364.723 299.953 364.637 300.383 364.465C300.812 364.293 301.312 364.02 301.883 363.645L301.93 360.34ZM310.613 354.023C310.559 354.555 310.516 355.094 310.484 355.641C310.453 356.18 310.43 356.754 310.414 357.363C311.047 356.246 311.629 355.441 312.16 354.949C312.699 354.457 313.254 354.211 313.824 354.211C314.27 354.211 314.621 354.332 314.879 354.574C315.137 354.809 315.266 355.129 315.266 355.535C315.266 355.824 315.18 356.074 315.008 356.285C314.844 356.488 314.648 356.59 314.422 356.59C314.281 356.59 314.062 356.516 313.766 356.367C313.477 356.211 313.227 356.133 313.016 356.133C312.609 356.133 312.203 356.312 311.797 356.672C311.391 357.023 310.965 357.574 310.52 358.324V359.613C310.52 360.863 310.527 361.879 310.543 362.66C310.566 363.434 310.598 363.926 310.637 364.137C310.707 364.535 310.855 364.809 311.082 364.957C311.316 365.105 311.711 365.18 312.266 365.18H312.605V366C311.996 365.953 311.453 365.918 310.977 365.895C310.5 365.871 310.098 365.859 309.77 365.859C309.316 365.859 308.848 365.871 308.363 365.895C307.887 365.918 307.387 365.953 306.863 366V365.18H307.133C307.703 365.18 308.09 365.043 308.293 364.77C308.496 364.496 308.598 363.859 308.598 362.859V361.629V357.82C308.598 356.977 308.539 356.434 308.422 356.191C308.305 355.949 308.09 355.828 307.777 355.828C307.715 355.828 307.648 355.832 307.578 355.84C307.508 355.84 307.391 355.852 307.227 355.875L307.086 355.148C307.641 355.023 308.211 354.867 308.797 354.68C309.383 354.492 309.988 354.273 310.613 354.023ZM320.012 354.023L319.871 355.992C320.754 355.352 321.52 354.887 322.168 354.598C322.824 354.309 323.426 354.164 323.973 354.164C325.121 354.164 325.984 354.488 326.562 355.137C327.141 355.785 327.43 356.758 327.43 358.055C327.43 358.062 327.426 358.406 327.418 359.086C327.41 359.766 327.406 360.445 327.406 361.125C327.406 361.414 327.402 361.777 327.395 362.215C327.387 362.645 327.383 362.938 327.383 363.094C327.383 363.969 327.461 364.539 327.617 364.805C327.773 365.07 328.07 365.203 328.508 365.203C328.531 365.203 328.574 365.199 328.637 365.191C328.707 365.184 328.758 365.18 328.789 365.18V366C328.086 365.953 327.555 365.922 327.195 365.906C326.836 365.891 326.535 365.883 326.293 365.883C325.918 365.883 325.512 365.895 325.074 365.918C324.637 365.934 324.191 365.961 323.738 366L323.727 365.18H323.902C324.902 365.18 325.41 364.266 325.426 362.438C325.434 362.336 325.438 362.258 325.438 362.203L325.461 359.684V359.262C325.461 357.816 325.293 356.859 324.957 356.391C324.621 355.914 324.043 355.676 323.223 355.676C322.77 355.676 322.266 355.785 321.711 356.004C321.164 356.215 320.582 356.531 319.965 356.953C319.934 357.766 319.91 358.535 319.895 359.262C319.879 359.98 319.871 360.633 319.871 361.219V362.836C319.871 363.867 319.945 364.52 320.094 364.793C320.25 365.066 320.551 365.203 320.996 365.203C321.027 365.203 321.074 365.199 321.137 365.191C321.207 365.184 321.262 365.18 321.301 365.18V366C320.629 365.953 320.098 365.922 319.707 365.906C319.324 365.891 319.008 365.883 318.758 365.883C318.523 365.883 318.215 365.891 317.832 365.906C317.449 365.922 316.914 365.953 316.227 366L316.215 365.18H316.438C317.414 365.18 317.906 364.23 317.914 362.332C317.914 362.051 317.918 361.832 317.926 361.676L317.949 358.805V357.645C317.949 356.879 317.891 356.379 317.773 356.145C317.656 355.902 317.441 355.781 317.129 355.781C317.066 355.781 316.984 355.789 316.883 355.805C316.789 355.82 316.688 355.844 316.578 355.875L316.438 355.148C317.023 355.039 317.609 354.891 318.195 354.703C318.789 354.516 319.395 354.289 320.012 354.023ZM334.238 354.023C334.23 354.32 334.219 354.742 334.203 355.289C334.102 358.43 334.051 360.641 334.051 361.922V363.164C334.051 364.07 334.137 364.641 334.309 364.875C334.48 365.109 334.816 365.227 335.316 365.227C335.363 365.227 335.426 365.223 335.504 365.215C335.582 365.207 335.641 365.203 335.68 365.203V366C335.016 365.953 334.48 365.922 334.074 365.906C333.668 365.891 333.324 365.883 333.043 365.883C332.793 365.883 332.473 365.891 332.082 365.906C331.699 365.922 331.121 365.953 330.348 366V365.18H330.641C331.609 365.18 332.098 364.227 332.105 362.32C332.105 362.047 332.105 361.832 332.105 361.676L332.152 358.781C332.152 358.57 332.156 358.305 332.164 357.984C332.172 357.664 332.176 357.449 332.176 357.34C332.176 356.707 332.113 356.289 331.988 356.086C331.871 355.883 331.652 355.781 331.332 355.781C331.27 355.781 331.176 355.789 331.051 355.805C330.934 355.812 330.805 355.824 330.664 355.84L330.547 355.102C331.164 354.984 331.777 354.836 332.387 354.656C333.004 354.477 333.621 354.266 334.238 354.023ZM332.973 348.504L333.805 349.125C334.023 349.289 334.184 349.453 334.285 349.617C334.387 349.781 334.438 349.953 334.438 350.133C334.438 350.312 334.395 350.469 334.309 350.602C334.23 350.727 334.078 350.875 333.852 351.047L332.973 351.715L332.152 351.07C331.926 350.891 331.762 350.727 331.66 350.578C331.559 350.422 331.508 350.258 331.508 350.086C331.508 349.914 331.547 349.766 331.625 349.641C331.703 349.508 331.863 349.352 332.105 349.172L332.973 348.504ZM341.152 354.023L341.012 355.992C341.895 355.352 342.66 354.887 343.309 354.598C343.965 354.309 344.566 354.164 345.113 354.164C346.262 354.164 347.125 354.488 347.703 355.137C348.281 355.785 348.57 356.758 348.57 358.055C348.57 358.062 348.566 358.406 348.559 359.086C348.551 359.766 348.547 360.445 348.547 361.125C348.547 361.414 348.543 361.777 348.535 362.215C348.527 362.645 348.523 362.938 348.523 363.094C348.523 363.969 348.602 364.539 348.758 364.805C348.914 365.07 349.211 365.203 349.648 365.203C349.672 365.203 349.715 365.199 349.777 365.191C349.848 365.184 349.898 365.18 349.93 365.18V366C349.227 365.953 348.695 365.922 348.336 365.906C347.977 365.891 347.676 365.883 347.434 365.883C347.059 365.883 346.652 365.895 346.215 365.918C345.777 365.934 345.332 365.961 344.879 366L344.867 365.18H345.043C346.043 365.18 346.551 364.266 346.566 362.438C346.574 362.336 346.578 362.258 346.578 362.203L346.602 359.684V359.262C346.602 357.816 346.434 356.859 346.098 356.391C345.762 355.914 345.184 355.676 344.363 355.676C343.91 355.676 343.406 355.785 342.852 356.004C342.305 356.215 341.723 356.531 341.105 356.953C341.074 357.766 341.051 358.535 341.035 359.262C341.02 359.98 341.012 360.633 341.012 361.219V362.836C341.012 363.867 341.086 364.52 341.234 364.793C341.391 365.066 341.691 365.203 342.137 365.203C342.168 365.203 342.215 365.199 342.277 365.191C342.348 365.184 342.402 365.18 342.441 365.18V366C341.77 365.953 341.238 365.922 340.848 365.906C340.465 365.891 340.148 365.883 339.898 365.883C339.664 365.883 339.355 365.891 338.973 365.906C338.59 365.922 338.055 365.953 337.367 366L337.355 365.18H337.578C338.555 365.18 339.047 364.23 339.055 362.332C339.055 362.051 339.059 361.832 339.066 361.676L339.09 358.805V357.645C339.09 356.879 339.031 356.379 338.914 356.145C338.797 355.902 338.582 355.781 338.27 355.781C338.207 355.781 338.125 355.789 338.023 355.805C337.93 355.82 337.828 355.844 337.719 355.875L337.578 355.148C338.164 355.039 338.75 354.891 339.336 354.703C339.93 354.516 340.535 354.289 341.152 354.023ZM356.68 355.055C355.844 355.055 355.195 355.312 354.734 355.828C354.273 356.344 354.043 357.07 354.043 358.008C354.043 359.039 354.266 359.844 354.711 360.422C355.164 360.992 355.797 361.277 356.609 361.277C357.43 361.277 358.074 361.02 358.543 360.504C359.012 359.98 359.246 359.262 359.246 358.348C359.246 357.293 359.023 356.48 358.578 355.91C358.133 355.34 357.5 355.055 356.68 355.055ZM354.547 365.836C354.164 366.266 353.883 366.656 353.703 367.008C353.523 367.359 353.434 367.695 353.434 368.016C353.434 368.742 353.758 369.355 354.406 369.855C355.062 370.355 355.883 370.605 356.867 370.605C357.984 370.605 358.949 370.293 359.762 369.668C360.582 369.051 360.992 368.355 360.992 367.582C360.992 366.949 360.793 366.504 360.395 366.246C359.996 365.988 359.23 365.859 358.098 365.859C357.98 365.859 357.723 365.855 357.324 365.848C356.926 365.84 356.59 365.836 356.316 365.836H354.547ZM359.457 354.984C359.98 354.984 360.508 354.977 361.039 354.961C361.578 354.945 362.117 354.922 362.656 354.891L362.598 356.062C362.254 356.023 361.875 355.996 361.461 355.98C361.055 355.957 360.582 355.945 360.043 355.945C360.41 356.227 360.688 356.57 360.875 356.977C361.07 357.375 361.168 357.816 361.168 358.301C361.168 359.355 360.727 360.262 359.844 361.02C358.969 361.777 357.891 362.156 356.609 362.156C356.477 362.156 356.289 362.148 356.047 362.133C355.805 362.109 355.633 362.094 355.531 362.086C355.32 362.227 355.121 362.375 354.934 362.531C354.746 362.68 354.574 362.836 354.418 363C354.535 363.219 354.668 363.422 354.816 363.609C354.973 363.789 355.152 363.961 355.355 364.125C355.598 364.125 355.945 364.121 356.398 364.113C357.492 364.09 358.211 364.078 358.555 364.078C359.969 364.078 360.984 364.293 361.602 364.723C362.227 365.152 362.539 365.844 362.539 366.797C362.539 367.406 362.367 368.02 362.023 368.637C361.688 369.262 361.211 369.832 360.594 370.348C359.961 370.871 359.23 371.281 358.402 371.578C357.582 371.875 356.766 372.023 355.953 372.023C354.742 372.023 353.727 371.703 352.906 371.062C352.094 370.422 351.688 369.645 351.688 368.73C351.688 368.199 351.855 367.676 352.191 367.16C352.535 366.652 353.133 366.051 353.984 365.355C353.633 365.035 353.34 364.707 353.105 364.371C352.879 364.035 352.695 363.668 352.555 363.27C352.836 363.004 353.145 362.754 353.48 362.52C353.816 362.277 354.188 362.039 354.594 361.805C353.805 361.555 353.188 361.137 352.742 360.551C352.297 359.965 352.074 359.285 352.074 358.512C352.074 357.301 352.52 356.277 353.41 355.441C354.309 354.605 355.43 354.188 356.773 354.188C357.266 354.188 357.727 354.254 358.156 354.387C358.586 354.512 359.02 354.711 359.457 354.984Z" fill="#D6965C"/>
</g>
<defs>
<clipPath id="clip0_1283_463">
<rect width="407" height="410" fill="white"/>
</clipPath>
</defs>
</svg>
